<svg width="10" height="10" viewBox="0 0 10 10" fill="none" xmlns="http://www.w3.org/2000/svg">
<g id="Magnifier">
<path id="Magnifier_2" fill-rule="evenodd" clip-rule="evenodd" d="M6.7172 3.85898C6.7172 5.43804 5.43727 6.71796 3.8586 6.71796C2.27993 6.71796 1 5.43804 1 3.85898C1 2.27992 2.27993 1 3.8586 1C5.43727 1 6.7172 2.27992 6.7172 3.85898ZM6.21083 6.91824C5.55971 7.41973 4.74398 7.71796 3.8586 7.71796C1.72755 7.71796 0 5.99023 0 3.85898C0 1.72772 1.72755 0 3.8586 0C5.98965 0 7.7172 1.72772 7.7172 3.85898C7.7172 4.74427 7.41912 5.55993 6.91786 6.21106L10.0004 9.29385L9.29321 10.0009L6.21083 6.91824Z" fill="#A2A2A2"/>
</g>
</svg>
