<svg width="24" height="25" viewBox="0 0 24 25" fill="none" xmlns="http://www.w3.org/2000/svg">
<g id="mdi:account-outline">
<path id="Vector" d="M12 4.07104C13.0609 4.07104 14.0783 4.49247 14.8284 5.24262C15.5786 5.99276 16 7.01018 16 8.07104C16 9.13191 15.5786 10.1493 14.8284 10.8995C14.0783 11.6496 13.0609 12.071 12 12.071C10.9391 12.071 9.92172 11.6496 9.17157 10.8995C8.42143 10.1493 8 9.13191 8 8.07104C8 7.01018 8.42143 5.99276 9.17157 5.24262C9.92172 4.49247 10.9391 4.07104 12 4.07104ZM12 6.07104C11.4696 6.07104 10.9609 6.28176 10.5858 6.65683C10.2107 7.0319 10 7.54061 10 8.07104C10 8.60148 10.2107 9.11019 10.5858 9.48526C10.9609 9.86033 11.4696 10.071 12 10.071C12.5304 10.071 13.0391 9.86033 13.4142 9.48526C13.7893 9.11019 14 8.60148 14 8.07104C14 7.54061 13.7893 7.0319 13.4142 6.65683C13.0391 6.28176 12.5304 6.07104 12 6.07104ZM12 13.071C14.67 13.071 20 14.401 20 17.071V20.071H4V17.071C4 14.401 9.33 13.071 12 13.071ZM12 14.971C9.03 14.971 5.9 16.431 5.9 17.071V18.171H18.1V17.071C18.1 16.431 14.97 14.971 12 14.971Z" fill="#747474"/>
</g>
</svg>
