<svg width="28" height="28" viewBox="0 0 28 28" fill="none" xmlns="http://www.w3.org/2000/svg">
<g id="mdi:eye-off-outline">
<path id="Vector" d="M3.09091 6.41111L4.48727 5L22.7273 23.5778L21.3418 25L17.9818 21.5778C16.7273 22 15.3964 22.2222 14 22.2222C8.54545 22.2222 3.88727 18.7667 2 13.8889C2.75273 11.9333 3.95273 10.2111 5.48 8.84444L3.09091 6.41111ZM14 10.5556C14.868 10.5556 15.7004 10.9067 16.3142 11.5319C16.9279 12.157 17.2727 13.0048 17.2727 13.8889C17.2733 14.2673 17.2106 14.643 17.0873 15L12.9091 10.7444C13.2596 10.6189 13.6285 10.555 14 10.5556ZM14 5.55556C19.4545 5.55556 24.1127 9.01111 26 13.8889C25.1097 16.1925 23.5967 18.1919 21.6364 19.6556L20.0873 18.0667C21.5959 17.0038 22.8126 15.5656 23.6218 13.8889C22.7399 12.0555 21.3706 10.5109 19.6697 9.43056C17.9688 8.35027 16.0045 7.77764 14 7.77778C12.8109 7.77778 11.6436 7.97778 10.5527 8.33333L8.87273 6.63333C10.4436 5.94444 12.1782 5.55556 14 5.55556ZM4.37818 13.8889C5.26012 15.7223 6.62935 17.2669 8.33025 18.3472C10.0312 19.4275 11.9955 20.0001 14 20C14.7527 20 15.4945 19.9222 16.1818 19.7667L13.6945 17.2222C12.9355 17.1394 12.2271 16.7943 11.6872 16.2445C11.1474 15.6946 10.8086 14.9732 10.7273 14.2L7.01818 10.4111C5.93818 11.3556 5.03273 12.5333 4.37818 13.8889Z" fill="#BABABA"/>
</g>
</svg>
