<svg width="24" height="25" viewBox="0 0 24 25" fill="none" xmlns="http://www.w3.org/2000/svg">
<g id="mdi:exit-to-app">
<path id="Vector" d="M19 3.07104H5C3.89 3.07104 3 3.96104 3 5.07104V9.07104H5V5.07104H19V19.071H5V15.071H3V19.071C3 19.6015 3.21071 20.1102 3.58579 20.4853C3.96086 20.8603 4.46957 21.071 5 21.071H19C19.5304 21.071 20.0391 20.8603 20.4142 20.4853C20.7893 20.1102 21 19.6015 21 19.071V5.07104C21 4.54061 20.7893 4.0319 20.4142 3.65683C20.0391 3.28176 19.5304 3.07104 19 3.07104ZM10.08 15.651L11.5 17.071L16.5 12.071L11.5 7.07104L10.08 8.48104L12.67 11.071H3V13.071H12.67L10.08 15.651Z" fill="#747474"/>
</g>
</svg>
