<svg width="16" height="16" viewBox="0 0 16 16" fill="none" xmlns="http://www.w3.org/2000/svg">
<g id="&#208;&#161;&#208;&#191;&#209;&#128;&#208;&#176;&#208;&#178;&#208;&#190;&#209;&#135;&#208;&#189;&#208;&#184;&#208;&#186;&#208;&#184;-&#208;&#186;&#208;&#187;&#208;&#184;&#208;&#181;&#208;&#189;&#209;&#130;&#209;&#139;_2.0-Copy">
<g id="edit-regular">
<path id="Shape" d="M11.1655 10.5943L12.0516 9.66084C12.1901 9.51499 12.431 9.61709 12.431 9.82711V14.0684C12.431 14.8414 11.8356 15.4685 11.1018 15.4685H1.35391C0.620053 15.4685 0.0246582 14.8414 0.0246582 14.0684V3.80067C0.0246582 3.02768 0.620053 2.40053 1.35391 2.40053H8.92788C9.1245 2.40053 9.22419 2.65139 9.08573 2.80016L8.19956 3.73358C8.15802 3.77734 8.10264 3.80067 8.04171 3.80067H1.35391V14.0684H11.1018V10.7576C11.1018 10.6964 11.1239 10.638 11.1655 10.5943ZM15.5021 4.70785L8.23002 12.3678L5.7266 12.6595C5.00105 12.7441 4.3835 12.0994 4.46381 11.3293L4.74074 8.69241L12.0129 1.03248C12.647 0.364498 13.6716 0.364498 14.303 1.03248L15.4994 2.29261C16.1335 2.96059 16.1335 4.04278 15.5021 4.70785ZM12.7661 5.60919L11.1571 3.91444L6.01183 9.33706L5.80968 11.2418L7.61801 11.0289L12.7661 5.60919ZM14.5606 3.28437L13.3643 2.02425C13.2507 1.90465 13.0652 1.90465 12.9544 2.02425L12.0987 2.92559L13.7076 4.62034L14.5634 3.719C14.6741 3.59649 14.6741 3.40397 14.5606 3.28437Z" fill="#1540A0"/>
</g>
</g>
</svg>
